<?xml version="1.0" standalone="no"?>
<!DOCTYPE svg PUBLIC "-//W3C//DTD SVG 20010904//EN"
 "http://www.w3.org/TR/2001/REC-SVG-20010904/DTD/svg10.dtd">
<svg version="1.0" xmlns="http://www.w3.org/2000/svg"
 width="1000.000000pt" height="1000.000000pt" viewBox="0 0 1000.000000 1000.000000"
 preserveAspectRatio="xMidYMid meet">
<metadata>
Created by potrace 1.16, written by Peter Selinger 2001-2019
</metadata>
<g transform="translate(0.000000,1000.000000) scale(0.100000,-0.100000)"
fill="#000000" stroke="none">
<path d="M4540 9910 c0 -7 160 -10 460 -10 300 0 460 3 460 10 0 7 -160 10
-460 10 -300 0 -460 -3 -460 -10z"/>
<path d="M4847 7313 c-4 -4 -47 -10 -95 -14 -98 -8 -229 -30 -312 -53 -81 -22
-210 -62 -250 -78 -79 -32 -123 -52 -163 -73 -23 -12 -74 -39 -113 -58 -70
-36 -238 -144 -302 -196 -82 -66 -223 -199 -287 -271 -88 -99 -155 -184 -155
-197 0 -5 -9 -18 -21 -29 -76 -68 -265 -474 -314 -674 -8 -30 -19 -73 -26 -95
-6 -22 -18 -85 -26 -140 -34 -233 -32 -247 27 -190 28 28 40 49 45 79 12 86
28 172 33 186 3 8 11 42 18 75 26 126 47 192 90 278 8 16 14 33 14 38 0 14
102 216 138 274 17 28 40 66 51 85 10 19 27 45 38 58 10 12 32 41 48 63 17 23
54 66 83 97 28 31 52 60 52 64 0 7 205 194 262 239 46 36 129 94 164 113 16 9
47 28 69 41 136 85 399 190 575 230 41 9 89 21 105 25 44 12 201 23 215 15 8
-5 8 -11 -1 -22 -25 -30 -48 -119 -49 -188 l0 -70 -47 -35 c-26 -19 -56 -50
-67 -69 -19 -32 -19 -36 -3 -63 18 -32 23 -78 7 -78 -5 0 -13 8 -19 17 -9 17
-11 16 -30 -1 -28 -26 -48 -14 -54 31 -16 114 -18 117 -67 124 -39 6 -49 3
-73 -20 -16 -14 -35 -38 -43 -53 -19 -36 -18 -112 1 -128 8 -7 15 -21 15 -31
0 -20 -15 -25 -25 -9 -4 6 -14 1 -24 -11 -11 -14 -24 -20 -34 -16 -16 6 -67
98 -67 121 0 28 -26 49 -53 42 -25 -6 -27 -10 -27 -66 0 -45 -4 -60 -14 -60
-8 0 -17 13 -21 29 -7 32 -25 44 -51 34 -18 -7 -16 -33 10 -122 13 -46 14 -57
1 -87 -8 -19 -21 -34 -29 -34 -8 0 -31 29 -52 65 l-36 66 -47 -7 c-52 -7 -67
-21 -82 -77 -14 -53 -1 -125 30 -170 45 -64 107 -63 141 3 16 32 26 40 48 40
34 0 45 8 65 45 12 24 22 30 49 30 l33 0 -2 88 c0 48 3 87 8 87 5 0 16 -15 25
-32 38 -76 72 -87 119 -38 24 25 34 29 61 24 36 -7 71 8 96 39 13 17 25 21 57
18 30 -2 48 3 67 18 25 20 29 20 52 5 22 -15 27 -15 61 2 20 11 44 25 54 33
15 12 19 12 35 -2 26 -24 63 -21 106 8 20 14 40 25 45 25 4 0 18 -11 31 -25
30 -32 102 -34 160 -5 51 26 60 25 60 -5 0 -20 5 -25 24 -25 19 0 34 14 68 65
47 73 68 82 68 31 0 -37 14 -53 57 -65 24 -7 28 -13 28 -43 0 -52 19 -68 78
-68 46 0 53 -4 87 -40 31 -34 43 -40 78 -40 34 0 44 -5 62 -30 18 -25 28 -30
65 -30 51 0 92 27 82 54 -5 13 -13 16 -25 11 -36 -16 -57 -11 -60 14 -2 13 0
26 5 30 10 7 73 102 73 110 0 3 -14 21 -31 39 -24 26 -38 32 -70 32 -61 0
-164 -65 -152 -96 3 -8 -1 -21 -8 -30 -11 -14 -14 -14 -24 -1 -6 9 -27 17 -45
19 -21 2 -36 9 -38 18 -1 8 20 50 48 93 27 42 50 79 50 82 0 2 -9 9 -20 15
-16 8 -26 6 -49 -11 -16 -12 -31 -29 -34 -39 -3 -11 -19 -20 -43 -24 -30 -6
-41 -4 -51 10 -15 21 -17 50 -3 59 16 10 11 55 -7 62 -9 4 -29 -1 -45 -10 -40
-23 -46 -22 -50 11 -5 43 -27 32 -61 -32 -29 -52 -39 -62 -99 -92 -67 -34
-118 -44 -118 -23 0 6 23 31 50 56 41 37 50 51 50 78 0 56 -53 89 -108 66 -29
-12 -82 -84 -82 -111 0 -18 -29 -53 -65 -76 -55 -36 -72 36 -34 136 37 98 50
205 37 315 l-3 30 85 -1 c120 -3 340 -22 370 -33 14 -5 48 -12 75 -16 28 -3
75 -15 105 -25 30 -10 84 -27 120 -39 112 -35 148 -50 278 -115 125 -62 180
-94 234 -135 34 -27 59 -26 86 2 l22 23 -28 26 c-76 73 -356 215 -557 283
-161 55 -281 81 -485 106 -111 14 -364 22 -373 12z"/>
<path d="M6525 6881 c-110 -27 -253 -163 -331 -313 -8 -16 -27 -64 -41 -106
-14 -42 -29 -82 -34 -87 -4 -6 -13 -38 -19 -70 -6 -33 -15 -80 -21 -105 -6
-25 -16 -85 -24 -135 -8 -49 -17 -101 -20 -115 -20 -83 -31 -556 -20 -879 5
-136 3 -169 -10 -196 -17 -37 -221 -245 -239 -245 -7 0 -23 -11 -35 -24 -12
-13 -50 -36 -83 -51 -50 -23 -71 -27 -124 -23 -75 5 -107 24 -144 89 -47 80
-55 123 -54 279 0 151 6 182 55 282 35 72 135 124 167 86 6 -7 12 -42 15 -78
10 -129 18 -153 57 -174 86 -46 178 19 202 144 11 55 11 72 0 135 -14 83 -64
149 -147 193 -46 25 -59 27 -175 27 -114 0 -130 -2 -180 -26 -31 -14 -82 -53
-118 -88 -51 -50 -74 -84 -118 -174 -30 -62 -57 -123 -60 -137 -2 -14 -10 -45
-16 -70 -13 -49 -16 -279 -4 -350 7 -51 1 -62 -70 -117 -85 -67 -114 -64 -160
14 l-28 48 1 212 c1 127 6 219 12 231 6 11 11 68 12 128 3 142 -15 200 -74
244 -38 28 -47 31 -91 25 -116 -15 -163 -67 -251 -285 -74 -181 -123 -280
-140 -280 -12 0 -15 16 -15 89 0 50 5 93 10 96 6 4 10 53 10 115 0 62 -4 111
-10 115 -5 3 -10 14 -10 24 0 9 -14 30 -31 47 -26 24 -38 29 -78 28 -86 -3
-147 -54 -157 -131 -3 -21 -9 -54 -15 -73 -5 -19 -14 -114 -19 -210 -16 -292
-23 -354 -43 -381 -10 -13 -29 -40 -43 -59 -46 -64 -78 -92 -145 -126 -64 -31
-68 -32 -86 -16 -36 33 -43 68 -43 228 0 85 4 163 10 173 13 25 23 349 12 386
-12 41 -65 72 -98 56 -32 -14 -89 -14 -117 0 -12 6 -37 25 -55 42 -28 27 -39
31 -85 31 -62 -1 -157 -34 -207 -72 -68 -51 -193 -178 -232 -237 -118 -176
-178 -369 -178 -570 0 -97 3 -119 29 -184 53 -136 161 -213 301 -213 124 -1
236 58 368 192 42 42 45 44 56 25 20 -34 120 -137 148 -151 35 -18 125 -18
178 1 48 17 149 82 197 128 27 25 35 28 48 17 8 -7 15 -19 15 -28 0 -8 16 -30
36 -48 30 -29 42 -34 85 -34 55 0 119 22 119 41 0 7 6 20 13 28 14 17 16 21
97 226 28 72 57 144 64 160 8 17 20 48 29 70 17 45 70 177 99 244 30 71 42 42
34 -86 -4 -59 -7 -121 -7 -138 0 -68 19 -243 29 -261 5 -10 13 -36 16 -58 9
-46 21 -70 61 -114 44 -49 79 -65 128 -57 88 14 225 74 261 114 11 12 24 21
31 21 6 0 29 18 50 40 21 22 44 40 51 40 6 0 24 -12 40 -27 94 -89 181 -117
339 -111 108 4 115 6 193 45 96 49 135 79 249 191 46 45 88 80 92 77 5 -2 12
-31 16 -62 16 -135 52 -193 121 -193 84 0 96 14 150 176 12 39 33 93 45 120
40 89 119 248 141 284 11 19 43 73 71 120 28 47 56 90 63 95 6 6 26 34 44 62
30 48 63 73 77 60 4 -4 -41 -157 -65 -217 -17 -45 -35 -155 -35 -225 -2 -229
140 -426 297 -412 28 2 71 10 96 18 42 12 149 69 177 93 6 6 28 22 49 36 20
14 55 42 79 63 23 20 49 37 57 37 8 0 35 -20 60 -45 26 -25 50 -45 53 -45 4 0
19 -9 34 -19 15 -11 56 -30 90 -42 56 -19 78 -21 185 -16 76 3 138 11 166 22
79 29 164 68 195 89 101 70 105 71 164 37 52 -31 123 -42 136 -21 8 13 70 13
93 1 9 -6 50 -20 90 -32 99 -29 223 -29 297 0 24 9 205 99 249 123 54 31 157
140 181 192 20 45 21 52 8 90 -23 65 -48 86 -105 86 -47 0 -51 -2 -136 -82
-152 -144 -189 -163 -322 -163 -158 1 -194 34 -130 119 17 22 30 44 30 49 0 5
12 24 28 42 15 18 45 63 67 99 46 76 96 156 147 236 19 30 48 79 63 108 25 49
85 102 114 102 29 0 25 140 -5 185 -14 21 -24 25 -68 25 -29 0 -56 -4 -62 -10
-5 -5 -57 -12 -115 -16 -105 -7 -108 -6 -185 26 -44 17 -83 36 -88 41 -13 12
-91 12 -114 0 -9 -5 -32 -15 -51 -22 -57 -21 -124 -97 -145 -165 -10 -32 -23
-70 -28 -84 -6 -14 -13 -61 -15 -105 -5 -68 -3 -83 13 -103 32 -38 64 -17 116
75 57 102 88 123 179 123 37 0 71 -4 74 -10 3 -5 14 -10 24 -10 29 0 48 -28
33 -48 -7 -10 -15 -24 -19 -32 -4 -8 -27 -47 -52 -87 -25 -39 -62 -97 -81
-129 -94 -153 -99 -159 -115 -134 -11 18 -43 10 -67 -17 -69 -81 -258 -221
-369 -275 -98 -47 -202 -67 -249 -48 -33 14 -103 86 -96 99 3 4 36 23 73 41
86 42 186 111 238 164 92 93 156 225 162 337 5 66 -11 116 -65 204 -23 36 -98
90 -154 110 -48 17 -194 20 -203 5 -3 -5 -17 -10 -30 -10 -13 0 -44 -10 -70
-23 -54 -28 -192 -159 -212 -202 -7 -16 -17 -37 -22 -45 -59 -106 -82 -211
-88 -396 l-4 -132 -67 -64 c-37 -36 -86 -75 -109 -87 -47 -23 -115 -28 -130
-8 -47 61 -39 252 17 442 43 144 63 359 39 416 -15 36 -67 69 -110 69 -58 0
-119 -40 -226 -147 -57 -57 -103 -110 -103 -117 0 -8 -7 -20 -17 -27 -16 -14
-66 -85 -109 -155 -32 -52 -42 -61 -50 -39 -8 19 4 59 44 145 39 87 123 291
139 340 8 25 19 54 23 65 5 11 14 38 21 60 6 22 16 45 21 51 8 11 43 124 70
229 6 22 13 47 16 55 13 36 34 142 43 220 6 47 15 101 21 121 5 19 8 60 5 90
-22 206 -52 272 -144 305 -41 14 -139 17 -188 5z m78 -296 c15 -69 12 -112
-27 -320 -32 -174 -39 -203 -66 -270 -8 -19 -56 -174 -87 -280 -8 -27 -18 -59
-23 -70 -5 -11 -19 -51 -30 -90 -12 -38 -26 -79 -30 -90 -5 -11 -12 -31 -15
-45 -11 -45 -27 -80 -36 -80 -19 0 -4 438 21 595 6 39 12 81 15 95 14 90 41
205 61 255 9 22 20 49 24 60 78 206 126 288 164 283 15 -2 23 -14 29 -43z
m1292 -1135 c25 -26 29 -38 29 -92 1 -69 -11 -93 -89 -176 -45 -48 -156 -106
-186 -97 -16 5 -19 16 -19 71 0 108 26 195 77 258 59 71 140 86 188 36z
m-4632 -417 c2 -21 0 -46 -4 -55 -5 -9 -9 -41 -9 -72 0 -30 -4 -58 -10 -61 -5
-3 -10 -34 -11 -68 0 -102 -24 -246 -48 -302 -5 -11 -14 -35 -21 -52 -13 -34
-90 -112 -112 -114 -54 -5 -112 34 -123 83 -13 60 -17 210 -6 221 6 6 11 27
11 46 0 19 13 64 29 100 16 36 32 73 35 81 4 8 19 33 34 56 15 22 38 57 50 77
13 20 29 37 34 37 6 0 26 14 45 30 23 21 44 30 67 30 32 0 34 -3 39 -37z"/>
<path d="M4830 6579 c-167 -21 -380 -82 -486 -139 -115 -62 -171 -95 -211
-127 -23 -18 -45 -33 -50 -33 -4 0 -64 -56 -133 -125 -69 -69 -128 -125 -132
-125 -5 0 -8 9 -8 19 0 11 -4 23 -10 26 -5 3 -10 14 -10 23 0 10 -27 44 -60
77 l-60 59 7 101 c6 99 5 101 -22 133 -54 64 -123 79 -195 42 -46 -24 -111
-100 -112 -132 0 -13 -4 -34 -10 -49 -20 -55 43 -205 113 -271 25 -22 78 -58
87 -58 5 0 20 -8 33 -19 28 -21 112 -53 149 -55 14 0 25 -3 24 -6 0 -3 -30
-66 -66 -140 -71 -144 -86 -181 -113 -275 -9 -33 -22 -75 -27 -94 -9 -31 -8
-37 12 -53 37 -30 64 -20 72 27 10 59 28 137 37 160 5 11 18 45 31 75 33 83
77 170 110 220 16 25 33 52 37 61 23 45 229 264 298 314 113 84 134 96 365
205 9 4 31 11 50 15 19 4 40 11 45 16 12 9 91 25 195 39 84 12 306 12 390 0
171 -23 255 -48 420 -123 51 -23 235 -141 244 -156 12 -19 97 -71 107 -66 5 4
9 22 9 41 0 27 -8 41 -37 67 -35 31 -52 43 -137 99 -58 38 -241 128 -259 128
-9 0 -18 4 -21 9 -7 11 -88 37 -161 52 -27 5 -70 15 -95 20 -115 26 -296 34
-420 18z m-1230 -139 c34 -34 38 -89 10 -130 -9 -13 -16 -9 -44 24 -65 75
-108 12 -45 -67 l32 -40 -27 -22 -27 -21 25 -13 c19 -11 30 -11 58 -1 32 12
38 11 66 -10 53 -39 94 -97 90 -128 -3 -25 -6 -27 -47 -25 -24 1 -51 9 -60 18
-10 8 -21 15 -24 15 -8 0 -39 26 -105 85 -52 46 -102 140 -102 189 0 41 38
103 78 128 38 23 97 23 122 -2z"/>
<path d="M1587 6243 c-5 -4 -36 -11 -70 -15 -77 -8 -165 -26 -192 -38 -11 -5
-35 -12 -54 -16 -19 -3 -57 -19 -85 -36 -28 -16 -65 -35 -81 -43 -17 -7 -50
-31 -75 -52 -25 -22 -52 -44 -61 -49 -29 -16 -88 -97 -126 -174 l-38 -75 0
-135 c0 -132 1 -136 32 -196 35 -66 160 -198 228 -239 79 -47 347 -175 367
-175 8 0 18 -4 24 -8 5 -5 41 -21 79 -36 39 -15 88 -36 111 -47 23 -10 46 -19
51 -19 14 0 96 -44 162 -88 157 -102 202 -167 209 -300 4 -77 2 -87 -27 -146
-39 -80 -132 -169 -222 -212 -94 -47 -138 -64 -157 -64 -10 0 -24 -6 -30 -12
-10 -10 -68 -13 -220 -13 -181 0 -210 2 -232 18 -13 9 -32 17 -42 17 -21 0
-48 20 -108 80 -69 69 -80 113 -80 306 0 178 0 177 -68 204 -25 10 -36 10 -45
1 -6 -6 -19 -11 -29 -11 -23 0 -87 -40 -113 -71 -74 -88 -105 -245 -69 -362
14 -47 54 -135 88 -195 23 -39 88 -101 146 -140 30 -20 57 -39 60 -42 20 -21
171 -71 270 -90 58 -11 380 -11 445 0 81 14 149 31 160 41 5 5 19 9 32 9 21 0
47 10 133 49 36 17 56 29 145 87 50 33 135 108 135 120 0 4 9 15 20 24 24 21
58 72 81 120 80 168 83 372 7 520 -31 60 -168 220 -190 220 -5 0 -28 14 -51
30 -68 50 -109 74 -157 94 -25 10 -67 29 -95 42 -27 12 -77 33 -110 46 -33 12
-64 25 -70 29 -5 3 -23 9 -40 13 -16 4 -48 15 -70 25 -315 143 -386 200 -434
352 -31 97 47 219 183 288 64 33 89 40 206 63 78 14 317 4 355 -16 17 -9 37
-16 46 -16 25 0 120 -89 135 -127 8 -18 14 -61 14 -95 0 -52 -7 -79 -41 -153
-42 -92 -60 -191 -45 -248 7 -31 60 -60 84 -47 9 4 33 14 52 21 60 22 142 109
179 191 19 40 39 84 45 97 6 14 11 82 11 160 0 130 -1 138 -29 191 -17 33 -63
89 -115 140 -83 82 -105 96 -236 151 -80 34 -368 73 -388 52z"/>
<path d="M6910 6154 c-6 -14 -10 -41 -10 -59 0 -32 9 -57 60 -170 10 -22 27
-61 38 -86 15 -36 30 -52 67 -73 27 -14 50 -24 52 -22 11 11 -58 191 -120 315
-70 138 -71 139 -87 95z"/>
<path d="M230 5175 c0 -250 4 -385 10 -385 6 0 10 135 10 385 0 250 -4 385
-10 385 -6 0 -10 -135 -10 -385z"/>
<path d="M9750 5175 c0 -250 4 -385 10 -385 6 0 10 135 10 385 0 250 -4 385
-10 385 -6 0 -10 -135 -10 -385z"/>
<path d="M7186 5389 c-2 -8 -7 -38 -11 -68 -3 -30 -14 -80 -23 -110 -10 -35
-17 -104 -20 -183 -4 -142 3 -154 49 -93 24 32 26 43 32 177 6 138 -2 270 -16
284 -3 4 -9 1 -11 -7z"/>
<path d="M6986 4274 c-14 -15 -26 -31 -26 -37 0 -24 -138 -285 -171 -324 -9
-10 -33 -45 -55 -78 -21 -33 -49 -71 -61 -85 -41 -47 -163 -185 -171 -192
-195 -179 -190 -175 -366 -290 -67 -43 -149 -92 -176 -103 -14 -6 -52 -23 -84
-38 -63 -30 -103 -46 -201 -79 -33 -11 -69 -24 -80 -28 -11 -5 -33 -11 -50
-15 -225 -48 -256 -53 -336 -54 -36 -1 -70 -6 -76 -12 -16 -16 -477 7 -523 27
-8 4 -35 11 -60 15 -62 12 -79 16 -122 28 -21 6 -53 15 -70 20 -18 5 -58 19
-88 31 -30 12 -71 26 -90 32 -32 10 -220 102 -265 131 -172 110 -212 136 -224
150 -7 10 -20 17 -28 17 -17 0 -373 355 -373 371 0 6 -17 33 -37 59 -21 26
-54 73 -73 103 -32 52 -37 56 -65 51 -16 -4 -34 -10 -39 -14 -9 -9 9 -63 28
-83 7 -7 22 -30 36 -52 13 -22 43 -63 67 -92 24 -28 43 -56 43 -61 0 -15 290
-305 336 -337 22 -14 64 -44 94 -66 99 -71 157 -109 167 -109 6 0 16 -6 22
-14 10 -12 213 -116 227 -116 3 0 20 -6 37 -14 146 -63 293 -106 447 -133 188
-32 222 -35 400 -35 186 0 268 7 415 35 175 34 225 46 272 65 26 11 82 33 123
48 182 66 424 204 597 339 61 48 348 336 374 376 13 20 50 75 81 122 81 120
160 264 199 362 43 107 43 105 -1 105 -16 0 -38 -11 -54 -26z"/>
<path d="M6046 4203 c-50 -97 -365 -324 -531 -384 -27 -9 -75 -27 -105 -38
-30 -12 -77 -24 -105 -27 -27 -4 -56 -12 -64 -18 -21 -17 -496 -15 -513 2 -6
6 -24 12 -39 12 -75 0 -377 126 -460 191 -20 16 -40 29 -44 29 -4 0 -23 14
-42 30 -28 25 -42 30 -86 30 -29 0 -58 5 -65 12 -7 7 -12 8 -12 2 0 -33 223
-190 365 -257 44 -21 88 -43 97 -48 21 -11 115 -40 208 -64 36 -9 112 -21 170
-26 58 -5 127 -11 154 -15 27 -3 72 -2 100 4 28 6 87 15 131 21 173 21 243 42
414 122 94 44 220 122 294 183 54 44 187 177 216 215 28 38 19 51 -36 51 -25
0 -36 -6 -47 -27z"/>
<path d="M5590 3637 c-22 -12 -110 -43 -148 -53 -7 -2 -15 -10 -18 -18 -7 -18
43 -145 67 -170 16 -18 22 -18 58 -6 32 10 44 10 70 -1 60 -27 63 -108 4 -146
-23 -15 -26 -15 -51 10 -24 25 -25 27 -9 45 18 20 22 42 8 42 -5 0 -30 -9 -56
-20 -45 -19 -46 -21 -40 -52 9 -42 30 -66 73 -84 30 -12 40 -12 81 2 55 18 82
35 116 71 21 24 25 37 25 89 0 111 -64 152 -185 119 -72 -19 -99 -11 -93 29 2
16 13 22 47 28 30 5 56 18 78 40 38 36 40 48 15 71 -15 14 -22 14 -42 4z"/>
<path d="M4414 3600 c-6 -6 -34 -13 -63 -17 -75 -9 -61 -29 32 -48 l27 -5 -81
-120 c-45 -66 -85 -123 -90 -126 -21 -13 -8 -45 23 -59 50 -20 77 0 133 97 26
46 58 99 70 118 81 130 85 139 69 155 -18 17 -104 21 -120 5z"/>
<path d="M4693 3549 c-6 -6 -22 -17 -34 -23 -41 -20 -69 -83 -69 -157 0 -59 3
-68 28 -92 34 -33 79 -35 116 -6 34 27 33 37 -6 41 -32 3 -33 5 -36 50 -4 59
17 101 59 118 29 13 33 12 50 -9 14 -17 19 -40 19 -81 0 -69 -9 -97 -55 -165
-26 -40 -49 -58 -114 -93 -58 -31 -81 -49 -81 -63 0 -32 79 -26 149 11 207
111 282 359 137 458 -24 17 -47 22 -92 22 -33 0 -65 -5 -71 -11z"/>
<path d="M5160 3533 c-100 -5 -104 -9 -96 -108 9 -101 26 -123 99 -127 46 -3
53 -6 70 -36 20 -33 20 -34 0 -70 -17 -33 -23 -37 -58 -37 -36 0 -40 3 -43 28
-2 16 1 34 8 41 8 10 7 15 -6 20 -81 31 -126 -48 -65 -113 28 -30 33 -31 108
-31 91 0 120 14 165 81 33 50 33 46 9 101 -30 70 -50 82 -149 88 l-87 5 0 30
c0 29 1 30 60 35 77 6 117 31 113 68 -3 30 -5 31 -128 25z"/>
</g>
</svg>
